<?xml version="1.0" encoding="utf-8"?>
<!-- Generator: Adobe Illustrator 26.3.1, SVG Export Plug-In . SVG Version: 6.00 Build 0)  -->
<svg version="1.1" id="Layer_1" xmlns="http://www.w3.org/2000/svg" xmlns:xlink="http://www.w3.org/1999/xlink" x="0px" y="0px"
	 viewBox="0 0 200 200" style="enable-background:new 0 0 200 200;" xml:space="preserve">
<style type="text/css">
	.st0{opacity:0.1;}
	.st1{fill:url(#SVGID_1_);}
	.st2{opacity:0.2;}
	.st3{fill:url(#SVGID_00000164489038925238994670000004731807615106817686_);}
	.st4{opacity:0.4;}
	.st5{fill:url(#SVGID_00000109724697570414815700000014043885409572502663_);}
	.st6{fill:url(#SVGID_00000031180449410870190020000012563684414854497974_);}
	.st7{fill:url(#SVGID_00000089564819512849804340000013580380897829341833_);}
	.st8{fill:url(#SVGID_00000021808573655851442690000007844154469786046596_);}
	.st9{fill:url(#SVGID_00000064322550459982148620000000727399907796455339_);}
</style>
<g>
	<g class="st0">
		<linearGradient id="SVGID_1_" gradientUnits="userSpaceOnUse" x1="33.8184" y1="166.1816" x2="166.1816" y2="33.8184">
			<stop  offset="0" style="stop-color:#5D00FF"/>
			<stop  offset="8.450090e-03" style="stop-color:#6400FE"/>
			<stop  offset="6.018471e-02" style="stop-color:#8800F8"/>
			<stop  offset="0.1183" style="stop-color:#A800F2"/>
			<stop  offset="0.1826" style="stop-color:#C400ED"/>
			<stop  offset="0.2552" style="stop-color:#DA00E9"/>
			<stop  offset="0.34" style="stop-color:#EB00E7"/>
			<stop  offset="0.4448" style="stop-color:#F600E4"/>
			<stop  offset="0.5918" style="stop-color:#FD00E3"/>
			<stop  offset="1" style="stop-color:#FF00E3"/>
		</linearGradient>
		<path class="st1" d="M100,7.7c2,0,4,0.4,5.3,1.2l71,41c2.8,1.6,5.3,6,5.3,9.2V141c0,3.2-2.5,7.6-5.3,9.2l-71,41
			c-1.3,0.8-3.2,1.2-5.3,1.2c-2,0-4-0.4-5.3-1.2l-71-41c-2.8-1.6-5.3-6-5.3-9.2V59c0-3.2,2.5-7.6,5.3-9.2l71-41
			C96,8.2,98,7.7,100,7.7 M100,3.7c-2.6,0-5.3,0.6-7.3,1.7l-71,41c-4,2.3-7.3,8-7.3,12.6V141c0,4.6,3.3,10.3,7.3,12.6l71,41
			c2,1.2,4.6,1.7,7.3,1.7s5.3-0.6,7.3-1.7l71-41c4-2.3,7.3-8,7.3-12.6V59c0-4.6-3.3-10.3-7.3-12.6l-71-41
			C105.3,4.3,102.6,3.7,100,3.7L100,3.7z"/>
	</g>
</g>
<g>
	<g class="st2">
		
			<linearGradient id="SVGID_00000161630629235799244600000009472413898571676047_" gradientUnits="userSpaceOnUse" x1="41.8507" y1="158.1493" x2="158.1493" y2="41.8507">
			<stop  offset="0" style="stop-color:#5D00FF"/>
			<stop  offset="8.450090e-03" style="stop-color:#6400FE"/>
			<stop  offset="6.018471e-02" style="stop-color:#8800F8"/>
			<stop  offset="0.1183" style="stop-color:#A800F2"/>
			<stop  offset="0.1826" style="stop-color:#C400ED"/>
			<stop  offset="0.2552" style="stop-color:#DA00E9"/>
			<stop  offset="0.34" style="stop-color:#EB00E7"/>
			<stop  offset="0.4448" style="stop-color:#F600E4"/>
			<stop  offset="0.5918" style="stop-color:#FD00E3"/>
			<stop  offset="1" style="stop-color:#FF00E3"/>
		</linearGradient>
		<path style="fill:url(#SVGID_00000161630629235799244600000009472413898571676047_);" d="M100,19.4c1.7,0,3.3,0.4,4.4,1l62.3,36
			c2.3,1.3,4.4,5,4.4,7.6v72c0,2.7-2.1,6.3-4.4,7.6l-62.3,36c-1.1,0.6-2.7,1-4.4,1c-1.7,0-3.3-0.4-4.4-1l-62.3-36
			c-2.3-1.3-4.4-5-4.4-7.6V64c0-2.7,2.1-6.3,4.4-7.6l62.3-36C96.7,19.8,98.3,19.4,100,19.4 M100,15.4c-2.3,0-4.6,0.5-6.4,1.5
			l-62.3,36c-3.5,2-6.4,7-6.4,11.1v72c0,4.1,2.9,9.1,6.4,11.1l62.3,36c1.8,1,4.1,1.5,6.4,1.5s4.6-0.5,6.4-1.5l62.3-36
			c3.5-2,6.4-7,6.4-11.1V64c0-4.1-2.9-9.1-6.4-11.1l-62.3-36C104.6,15.9,102.3,15.4,100,15.4L100,15.4z"/>
	</g>
</g>
<g>
	<g class="st4">
		
			<linearGradient id="SVGID_00000034795428954163500010000004350157808230656431_" gradientUnits="userSpaceOnUse" x1="49.8444" y1="150.1556" x2="150.1556" y2="49.8444">
			<stop  offset="0" style="stop-color:#5D00FF"/>
			<stop  offset="8.450090e-03" style="stop-color:#6400FE"/>
			<stop  offset="6.018471e-02" style="stop-color:#8800F8"/>
			<stop  offset="0.1183" style="stop-color:#A800F2"/>
			<stop  offset="0.1826" style="stop-color:#C400ED"/>
			<stop  offset="0.2552" style="stop-color:#DA00E9"/>
			<stop  offset="0.34" style="stop-color:#EB00E7"/>
			<stop  offset="0.4448" style="stop-color:#F600E4"/>
			<stop  offset="0.5918" style="stop-color:#FD00E3"/>
			<stop  offset="1" style="stop-color:#FF00E3"/>
		</linearGradient>
		<path style="fill:url(#SVGID_00000034795428954163500010000004350157808230656431_);" d="M100,31c1.4,0,2.7,0.3,3.5,0.8l53.8,31
			c1.8,1,3.5,4,3.5,6.1V131c0,2.1-1.7,5.1-3.5,6.1l-53.8,31c-0.8,0.5-2.2,0.8-3.5,0.8s-2.7-0.3-3.5-0.8l-53.8-31
			c-1.8-1-3.5-4-3.5-6.1V69c0-2.1,1.7-5.1,3.5-6.1l53.8-31C97.3,31.3,98.6,31,100,31 M100,27c-2,0-4,0.4-5.5,1.3l-53.8,31
			c-3,1.8-5.5,6.1-5.5,9.6V131c0,3.5,2.5,7.8,5.5,9.6l53.8,31c1.5,0.9,3.5,1.3,5.5,1.3s4-0.4,5.5-1.3l53.8-31c3-1.8,5.5-6.1,5.5-9.6
			V69c0-3.5-2.5-7.8-5.5-9.6l-53.8-31C104,27.5,102,27,100,27L100,27z"/>
	</g>
</g>
<g>
	<g>
		
			<linearGradient id="SVGID_00000158712282280670129760000006072435535541006499_" gradientUnits="userSpaceOnUse" x1="58.2462" y1="141.7538" x2="141.7538" y2="58.2462">
			<stop  offset="0" style="stop-color:#5D00FF"/>
			<stop  offset="8.450090e-03" style="stop-color:#6400FE"/>
			<stop  offset="6.018471e-02" style="stop-color:#8800F8"/>
			<stop  offset="0.1183" style="stop-color:#A800F2"/>
			<stop  offset="0.1826" style="stop-color:#C400ED"/>
			<stop  offset="0.2552" style="stop-color:#DA00E9"/>
			<stop  offset="0.34" style="stop-color:#EB00E7"/>
			<stop  offset="0.4448" style="stop-color:#F600E4"/>
			<stop  offset="0.5918" style="stop-color:#FD00E3"/>
			<stop  offset="1" style="stop-color:#FF00E3"/>
		</linearGradient>
		<path style="fill:url(#SVGID_00000158712282280670129760000006072435535541006499_);" d="M100,43.3c1,0,2,0.2,2.6,0.6l44.8,25.8
			c1.3,0.7,2.6,3,2.6,4.5v51.7c0,1.5-1.3,3.8-2.6,4.5l-44.8,25.8c-0.6,0.3-1.6,0.6-2.6,0.6s-2-0.2-2.6-0.6l-44.8-25.8
			c-1.3-0.7-2.6-3-2.6-4.5V74.2c0-1.5,1.3-3.8,2.6-4.5l44.8-25.8C98,43.5,99,43.3,100,43.3 M100,39.3c-1.7,0-3.3,0.4-4.6,1.1
			L50.6,66.2c-2.5,1.5-4.6,5-4.6,8v51.7c0,2.9,2.1,6.5,4.6,8l44.8,25.8c1.3,0.7,2.9,1.1,4.6,1.1s3.3-0.4,4.6-1.1l44.8-25.8
			c2.5-1.5,4.6-5,4.6-8V74.2c0-2.9-2.1-6.5-4.6-8l-44.8-25.8C103.3,39.6,101.7,39.3,100,39.3L100,39.3z"/>
	</g>
	<g>
		
			<linearGradient id="SVGID_00000052092707700332709050000001069470768701061812_" gradientUnits="userSpaceOnUse" x1="85.8511" y1="93.1715" x2="71.2186" y2="73.2936" gradientTransform="matrix(0.8053 0.5928 -0.5928 0.8053 86.0865 -31.0489)">
			<stop  offset="0" style="stop-color:#7D01F9"/>
			<stop  offset="1.917839e-02" style="stop-color:#8901F7"/>
			<stop  offset="7.849645e-02" style="stop-color:#A801F2"/>
			<stop  offset="0.1457" style="stop-color:#C400ED"/>
			<stop  offset="0.2215" style="stop-color:#DA00E9"/>
			<stop  offset="0.3101" style="stop-color:#EB00E6"/>
			<stop  offset="0.4196" style="stop-color:#F600E4"/>
			<stop  offset="0.5733" style="stop-color:#FD00E3"/>
			<stop  offset="1" style="stop-color:#FF00E3"/>
		</linearGradient>
		<path style="fill:url(#SVGID_00000052092707700332709050000001069470768701061812_);" d="M104.5,93.9c-2.5,1.3-6.6,1.3-9.1,0
			L78.3,85c-2.5-1.3-2.5-3.4,0-4.8l17.2-9c2.5-1.3,6.6-1.3,9.1,0l17.2,8.9c2.5,1.3,2.5,3.4,0,4.8L104.5,93.9z"/>
	</g>
	<g>
		
			<linearGradient id="SVGID_00000135665306835414222460000015232805859371532703_" gradientUnits="userSpaceOnUse" x1="58.2295" y1="141.7929" x2="79.093" y2="162.6565" gradientTransform="matrix(6.774617e-07 1 -1 6.774617e-07 237.9486 39.3482)">
			<stop  offset="0" style="stop-color:#5D00FF"/>
			<stop  offset="8.450090e-03" style="stop-color:#6400FE"/>
			<stop  offset="6.018471e-02" style="stop-color:#8800F8"/>
			<stop  offset="0.1183" style="stop-color:#A800F2"/>
			<stop  offset="0.1826" style="stop-color:#C400ED"/>
			<stop  offset="0.2552" style="stop-color:#DA00E9"/>
			<stop  offset="0.34" style="stop-color:#EB00E7"/>
			<stop  offset="0.4448" style="stop-color:#F600E4"/>
			<stop  offset="0.5918" style="stop-color:#FD00E3"/>
			<stop  offset="1" style="stop-color:#FF00E3"/>
		</linearGradient>
		<path style="fill:url(#SVGID_00000135665306835414222460000015232805859371532703_);" d="M77.1,119.8c-2.5-1.3-4.5-4.7-4.5-7.5
			l0-22.4c0-2.8,2-4.1,4.5-2.8l17.2,9c2.5,1.3,4.5,4.7,4.5,7.5v22.4c0,2.8-2,4.1-4.5,2.8L77.1,119.8z"/>
	</g>
	<g>
		
			<linearGradient id="SVGID_00000104705496984653325040000012927736978847691413_" gradientUnits="userSpaceOnUse" x1="54.106" y1="188.7097" x2="68.6575" y2="213.9136" gradientTransform="matrix(-6.775066e-07 1 1 6.775066e-07 -87.0503 46.5687)">
			<stop  offset="0" style="stop-color:#5D00FF"/>
			<stop  offset="8.450090e-03" style="stop-color:#6400FE"/>
			<stop  offset="6.018471e-02" style="stop-color:#8800F8"/>
			<stop  offset="0.1183" style="stop-color:#A800F2"/>
			<stop  offset="0.1826" style="stop-color:#C400ED"/>
			<stop  offset="0.2552" style="stop-color:#DA00E9"/>
			<stop  offset="0.34" style="stop-color:#EB00E7"/>
			<stop  offset="0.4448" style="stop-color:#F600E4"/>
			<stop  offset="0.5918" style="stop-color:#FD00E3"/>
			<stop  offset="1" style="stop-color:#FF00E3"/>
		</linearGradient>
		<path style="fill:url(#SVGID_00000104705496984653325040000012927736978847691413_);" d="M122.9,119.8c2.5-1.3,4.5-4.7,4.5-7.5
			l0-22.4c0-2.8-2-4.1-4.5-2.8l-17.2,9c-2.5,1.3-4.5,4.7-4.5,7.5l0,22.5c0,2.8,2,4.1,4.5,2.7L122.9,119.8z"/>
	</g>
</g>
</svg>
