<?xml version="1.0" encoding="utf-8"?>
<!-- Generator: Adobe Illustrator 26.3.1, SVG Export Plug-In . SVG Version: 6.00 Build 0)  -->
<svg version="1.1" id="Layer_1" xmlns="http://www.w3.org/2000/svg" xmlns:xlink="http://www.w3.org/1999/xlink" x="0px" y="0px"
	 viewBox="0 0 200 200" style="enable-background:new 0 0 200 200;" xml:space="preserve">
<style type="text/css">
	.st0{fill:url(#SVGID_1_);}
	.st1{clip-path:url(#SVGID_00000026134352702757230940000004632449212155319230_);}
	.st2{fill:url(#SVGID_00000047781925446367686750000013253497959534862222_);}
	.st3{opacity:0.1;}
	.st4{fill:none;stroke:url(#SVGID_00000109720630460753614020000004493080645909122229_);stroke-width:4;stroke-miterlimit:10;}
	.st5{opacity:0.2;}
	.st6{fill:none;stroke:url(#SVGID_00000103982310262942187090000014317110463458112138_);stroke-width:4;stroke-miterlimit:10;}
	.st7{opacity:0.4;}
	.st8{fill:none;stroke:url(#SVGID_00000104664991383038571680000016435853568786085512_);stroke-width:4;stroke-miterlimit:10;}
	.st9{fill:none;stroke:url(#SVGID_00000073694097438627964070000007172362367094175922_);stroke-width:4;stroke-miterlimit:10;}
	.st10{clip-path:url(#SVGID_00000135689498829255542380000018338670860398954889_);}
	.st11{fill:url(#SVGID_00000089542555159444559020000013029795894331824515_);}
</style>
<g>
	
		<linearGradient id="SVGID_1_" gradientUnits="userSpaceOnUse" x1="82.6705" y1="353.4205" x2="208.5295" y2="479.2795" gradientTransform="matrix(1 0 0 -1 0 200)">
		<stop  offset="0" style="stop-color:#38F4F8"/>
		<stop  offset="7.545834e-02" style="stop-color:#38E2F8"/>
		<stop  offset="0.18" style="stop-color:#38D1F8"/>
		<stop  offset="0.3102" style="stop-color:#38C6F8"/>
		<stop  offset="0.4929" style="stop-color:#38BFF8"/>
		<stop  offset="1" style="stop-color:#38BDF8"/>
	</linearGradient>
	<path class="st0" d="M145.6-301.9c1.5,0,3,0.3,3.9,0.8l67.5,39c1.9,1.1,3.9,4.6,3.9,6.8v77.9c0,2.2-2,5.7-3.9,6.8l-67.5,39
		c-0.9,0.5-2.4,0.8-3.9,0.8s-3-0.3-3.9-0.8l-67.5-39c-1.9-1.1-3.9-4.6-3.9-6.8v-77.9c0-2.2,2-5.7,3.9-6.8l67.5-39
		C142.5-301.6,144.1-301.9,145.6-301.9 M145.6-307.9c-2.5,0-5,0.6-6.9,1.6l-67.5,39c-3.8,2.2-6.9,7.6-6.9,12v77.9
		c0,4.4,3.1,9.8,6.9,12l67.5,39c1.9,1.1,4.4,1.6,6.9,1.6s5-0.6,6.9-1.6l67.5-39c3.8-2.2,6.9-7.6,6.9-12v-77.9c0-4.4-3.1-9.8-6.9-12
		l-67.5-39C150.6-307.4,148.1-307.9,145.6-307.9L145.6-307.9z"/>
</g>
<g>
	<g>
		<defs>
			<rect id="SVGID_00000158743928764744037350000009577867987284834465_" x="90.7" y="-249" width="108.5" height="65.1"/>
		</defs>
		<clipPath id="SVGID_00000000211432656865977840000002908543064984309390_">
			<use xlink:href="#SVGID_00000158743928764744037350000009577867987284834465_"  style="overflow:visible;"/>
		</clipPath>
		<g style="clip-path:url(#SVGID_00000000211432656865977840000002908543064984309390_);">
			<g>
				
					<linearGradient id="SVGID_00000022533284732158477940000015563622111494870669_" gradientUnits="userSpaceOnUse" x1="121.9728" y1="376.7024" x2="167.8707" y2="456.1999" gradientTransform="matrix(1 0 0 -1 0 200)">
					<stop  offset="0" style="stop-color:#38F4F8"/>
					<stop  offset="7.545834e-02" style="stop-color:#38E2F8"/>
					<stop  offset="0.18" style="stop-color:#38D1F8"/>
					<stop  offset="0.3102" style="stop-color:#38C6F8"/>
					<stop  offset="0.4929" style="stop-color:#38BFF8"/>
					<stop  offset="1" style="stop-color:#38BDF8"/>
				</linearGradient>
				<path style="fill:url(#SVGID_00000022533284732158477940000015563622111494870669_);" d="M145-241c10.1,0,14.3,4.3,19.2,9.3
					c2.5,2.5,5.2,5.3,8.7,7.3c-0.3,0-0.5,0-0.8,0c-10.1,0-14.3-4.3-19.2-9.3c-2.5-2.5-5.2-5.3-8.7-7.3
					C144.5-240.9,144.7-241,145-241 M117.9-208.4c10.1,0,14.3,4.3,19.2,9.3c2.5,2.5,5.2,5.3,8.7,7.3c-0.3,0-0.5,0-0.8,0
					c-10.1,0-14.3-4.3-19.2-9.3c-2.5-2.5-5.2-5.3-8.7-7.3C117.4-208.4,117.6-208.4,117.9-208.4 M145-249c-14.5,0-23.5,7.2-27.1,21.7
					c4.3-5.8,9.3-8.7,14.7-8.7c1.4,0,2.8,0.2,4.2,0.5c4.1,1,7.1,4,10.3,7.3c5.3,5.4,11.5,11.6,24.9,11.6c14.5,0,23.5-7.2,27.1-21.7
					c-4.3,5.8-9.3,8.7-14.7,8.7c-1.4,0-2.8-0.2-4.2-0.5c-4.1-1-7.1-4-10.3-7.3C164.6-242.7,158.4-249,145-249L145-249z M117.9-216.4
					c-14.5,0-23.5,7.2-27.1,21.7c4.3-5.8,9.3-8.7,14.7-8.7c1.4,0,2.8,0.2,4.2,0.5c4.1,1,7.1,4,10.3,7.3c5.3,5.4,11.5,11.6,24.9,11.6
					c14.5,0,23.5-7.2,27.1-21.7c-4.3,5.8-9.3,8.7-14.7,8.7c-1.4,0-2.8-0.2-4.2-0.5c-4.1-1-7.1-4-10.3-7.3
					C137.5-210.2,131.3-216.4,117.9-216.4L117.9-216.4z"/>
			</g>
		</g>
	</g>
</g>
<g class="st3">
	
		<linearGradient id="SVGID_00000168090052388434053280000005567507366916191119_" gradientUnits="userSpaceOnUse" x1="32.4041" y1="167.5959" x2="167.5959" y2="32.4041">
		<stop  offset="0" style="stop-color:#38F4F8"/>
		<stop  offset="7.545834e-02" style="stop-color:#38E2F8"/>
		<stop  offset="0.18" style="stop-color:#38D1F8"/>
		<stop  offset="0.3102" style="stop-color:#38C6F8"/>
		<stop  offset="0.4929" style="stop-color:#38BFF8"/>
		<stop  offset="1" style="stop-color:#38BDF8"/>
	</linearGradient>
	
		<path style="fill:none;stroke:url(#SVGID_00000168090052388434053280000005567507366916191119_);stroke-width:4;stroke-miterlimit:10;" d="
		M178.2,153.6c4-2.3,7.3-8,7.3-12.6V59c0-4.6-3.3-10.3-7.3-12.6l-71-41c-4-2.3-10.6-2.3-14.6,0l-71,41c-4,2.3-7.3,8-7.3,12.6V141
		c0,4.6,3.3,10.3,7.3,12.6l71,41c4,2.3,10.6,2.3,14.6,0L178.2,153.6z"/>
</g>
<g class="st5">
	
		<linearGradient id="SVGID_00000033367569378995146740000016598266734110685091_" gradientUnits="userSpaceOnUse" x1="40.4365" y1="159.5635" x2="159.5635" y2="40.4365">
		<stop  offset="0" style="stop-color:#38F4F8"/>
		<stop  offset="7.545834e-02" style="stop-color:#38E2F8"/>
		<stop  offset="0.18" style="stop-color:#38D1F8"/>
		<stop  offset="0.3102" style="stop-color:#38C6F8"/>
		<stop  offset="0.4929" style="stop-color:#38BFF8"/>
		<stop  offset="1" style="stop-color:#38BDF8"/>
	</linearGradient>
	
		<path style="fill:none;stroke:url(#SVGID_00000033367569378995146740000016598266734110685091_);stroke-width:4;stroke-miterlimit:10;" d="
		M168.7,147.1c3.5-2,6.4-7,6.4-11.1V64c0-4.1-2.9-9.1-6.4-11.1l-62.3-36c-3.5-2-9.3-2-12.8,0l-62.3,36c-3.5,2-6.4,7-6.4,11.1v72
		c0,4.1,2.9,9.1,6.4,11.1l62.3,36c3.5,2,9.3,2,12.8,0L168.7,147.1z"/>
</g>
<g class="st7">
	
		<linearGradient id="SVGID_00000083053175736418066330000017775504815477212604_" gradientUnits="userSpaceOnUse" x1="48.4302" y1="151.5698" x2="151.5698" y2="48.4302">
		<stop  offset="0" style="stop-color:#38F4F8"/>
		<stop  offset="7.545834e-02" style="stop-color:#38E2F8"/>
		<stop  offset="0.18" style="stop-color:#38D1F8"/>
		<stop  offset="0.3102" style="stop-color:#38C6F8"/>
		<stop  offset="0.4929" style="stop-color:#38BFF8"/>
		<stop  offset="1" style="stop-color:#38BDF8"/>
	</linearGradient>
	
		<path style="fill:none;stroke:url(#SVGID_00000083053175736418066330000017775504815477212604_);stroke-width:4;stroke-miterlimit:10;" d="
		M159.3,140.6c3-1.8,5.5-6.1,5.5-9.6V69c0-3.5-2.5-7.8-5.5-9.6l-53.8-31c-3-1.8-8-1.8-11,0l-53.8,31c-3,1.8-5.5,6.1-5.5,9.6V131
		c0,3.5,2.5,7.8,5.5,9.6l53.8,31c3,1.8,8,1.8,11,0L159.3,140.6z"/>
</g>
<g>
	<g>
		
			<linearGradient id="SVGID_00000010276703105835934000000002749873844192349357_" gradientUnits="userSpaceOnUse" x1="44.0444" y1="100" x2="155.9556" y2="100">
			<stop  offset="0" style="stop-color:#38F4F8"/>
			<stop  offset="7.545834e-02" style="stop-color:#38E2F8"/>
			<stop  offset="0.18" style="stop-color:#38D1F8"/>
			<stop  offset="0.3102" style="stop-color:#38C6F8"/>
			<stop  offset="0.4929" style="stop-color:#38BFF8"/>
			<stop  offset="1" style="stop-color:#38BDF8"/>
		</linearGradient>
		
			<path style="fill:none;stroke:url(#SVGID_00000010276703105835934000000002749873844192349357_);stroke-width:4;stroke-miterlimit:10;" d="
			M149.4,133.8c2.5-1.5,4.6-5,4.6-8V74.2c0-2.9-2.1-6.5-4.6-8l-44.8-25.8c-2.5-1.5-6.7-1.5-9.2,0L50.6,66.2c-2.5,1.5-4.6,5-4.6,8
			v51.7c0,2.9,2.1,6.5,4.6,8l44.8,25.8c2.5,1.5,6.7,1.5,9.2,0L149.4,133.8z"/>
	</g>
</g>
<g>
	<g>
		<defs>
			<rect id="SVGID_00000095330740778937080460000017651214180869531009_" x="65.1" y="79.1" width="69.8" height="41.9"/>
		</defs>
		<clipPath id="SVGID_00000049940539472642531290000009292115123388150946_">
			<use xlink:href="#SVGID_00000095330740778937080460000017651214180869531009_"  style="overflow:visible;"/>
		</clipPath>
		<g style="clip-path:url(#SVGID_00000049940539472642531290000009292115123388150946_);">
			<g>
				
					<linearGradient id="SVGID_00000008870330325754207040000008138035944479662010_" gradientUnits="userSpaceOnUse" x1="85.225" y1="74.441" x2="114.7387" y2="125.5604" gradientTransform="matrix(1 0 0 -1 0 200)">
					<stop  offset="0" style="stop-color:#38F4F8"/>
					<stop  offset="7.545834e-02" style="stop-color:#38E2F8"/>
					<stop  offset="0.18" style="stop-color:#38D1F8"/>
					<stop  offset="0.3102" style="stop-color:#38C6F8"/>
					<stop  offset="0.4929" style="stop-color:#38BFF8"/>
					<stop  offset="1" style="stop-color:#38BDF8"/>
				</linearGradient>
				<path style="fill:url(#SVGID_00000008870330325754207040000008138035944479662010_);" d="M100,84.2c6.5,0,9.2,2.8,12.3,6
					c1.6,1.6,3.3,3.4,5.6,4.7c-0.2,0-0.3,0-0.5,0c-6.5,0-9.2-2.8-12.3-6c-1.6-1.6-3.3-3.4-5.6-4.7C99.7,84.3,99.8,84.2,100,84.2
					 M82.6,105.2c6.5,0,9.2,2.8,12.3,6c1.6,1.6,3.3,3.4,5.6,4.7c-0.2,0-0.3,0-0.5,0c-6.5,0-9.2-2.8-12.3-6c-1.6-1.6-3.3-3.4-5.6-4.7
					C82.3,105.2,82.4,105.2,82.6,105.2 M100,79.1c-9.3,0-15.1,4.6-17.4,14c2.8-3.7,6-5.6,9.5-5.6c0.9,0,1.8,0.1,2.7,0.3
					c2.6,0.6,4.6,2.6,6.6,4.7c3.4,3.5,7.4,7.5,16,7.5c9.3,0,15.1-4.6,17.4-14c-2.8,3.7-6,5.6-9.5,5.6c-0.9,0-1.8-0.1-2.7-0.3
					c-2.6-0.6-4.6-2.6-6.6-4.7C112.6,83.1,108.6,79.1,100,79.1L100,79.1z M82.6,100c-9.3,0-15.1,4.6-17.4,14c2.8-3.7,6-5.6,9.5-5.6
					c0.9,0,1.8,0.1,2.7,0.3c2.6,0.6,4.6,2.6,6.6,4.7c3.4,3.5,7.4,7.5,16,7.5c9.3,0,15.1-4.6,17.4-14c-2.8,3.7-6,5.6-9.5,5.6
					c-0.9,0-1.8-0.1-2.7-0.3c-2.6-0.6-4.6-2.6-6.6-4.7C95.2,104,91.2,100,82.6,100L82.6,100z"/>
			</g>
		</g>
	</g>
</g>
</svg>
